<svg width="143" height="90" viewBox="0 0 143 90" fill="none" xmlns="http://www.w3.org/2000/svg">
<path fill-rule="evenodd" clip-rule="evenodd" d="M48.9985 42.1453C47.5883 42.1453 46.3898 42.6623 45.4027 43.6963C44.4156 44.7307 43.9219 45.9998 43.9219 47.5036C43.9219 48.9844 44.4156 50.2417 45.4027 51.2757C46.3898 52.3104 47.5883 52.8271 48.9985 52.8271C50.4084 52.8271 51.6073 52.3104 52.5944 51.2757C53.5815 50.2417 54.0749 48.9844 54.0749 47.5036C54.0749 45.9998 53.5815 44.7307 52.5944 43.6963C51.6073 42.6623 50.4084 42.1453 48.9985 42.1453Z" fill="#D8796F"/>
<path fill-rule="evenodd" clip-rule="evenodd" d="M55.9609 54.2725C55.0795 55.1184 54.0397 55.7884 52.8411 56.2818C51.6426 56.7752 50.3614 57.0224 48.9985 57.0224C47.6352 57.0224 46.3546 56.7752 45.1561 56.2818C43.9572 55.7884 42.9171 55.1184 42.036 54.2725C41.1546 53.4262 40.461 52.4215 39.9561 51.2582C39.4503 50.0948 39.198 48.8433 39.198 47.5036C39.198 46.1642 39.4503 44.9124 39.9561 43.7493C40.461 42.586 41.1546 41.5758 42.036 40.7175C42.9171 39.8597 43.9572 39.1837 45.1561 38.6903C46.3546 38.1969 47.6352 37.95 48.9985 37.95C50.3614 37.95 51.6426 38.1969 52.8411 38.6903C54.0397 39.1837 55.0795 39.8597 55.9609 40.7175C56.8423 41.5758 57.5353 42.586 58.0411 43.7493C58.546 44.9124 58.7989 46.1642 58.7989 47.5036C58.7989 48.8433 58.546 50.0948 58.0411 51.2582C57.5353 52.4215 56.8423 53.4262 55.9609 54.2725ZM37.9117 53.3735C37.5003 54.1138 36.9424 54.7544 36.237 55.2947C35.5322 55.8357 34.6859 56.2588 33.6988 56.5638C32.7117 56.8691 31.6423 57.0224 30.491 57.0224C28.8218 57.0224 27.2592 56.8046 25.8023 56.3699C24.3449 55.9353 23.0994 55.3068 22.0657 54.4839L24.4627 51.2757C25.5434 51.9808 26.5656 52.5042 27.5297 52.8444C28.4932 53.1854 29.4566 53.3556 30.4204 53.3556C31.5011 53.3556 32.3649 53.1794 33.0116 52.8271C33.6576 52.4745 33.9808 52.0045 33.9808 51.4169C33.9808 50.9471 33.7988 50.5709 33.4344 50.2886C33.0698 50.0066 32.4882 49.8073 31.6895 49.6895L28.1642 49.1607C26.3542 48.8784 24.9739 48.2914 24.022 47.3979C23.07 46.505 22.5942 45.318 22.5942 43.8375C22.5942 42.0747 23.2872 40.6648 24.6741 39.6071C26.0604 38.5494 27.9174 38.0206 30.2441 38.0206C31.5838 38.0206 32.888 38.2144 34.1574 38.6021C35.4265 38.9901 36.6365 39.5602 37.7884 40.3119L35.4616 43.4144C34.4509 42.8271 33.4874 42.3867 32.5709 42.0923C31.6544 41.7988 30.7257 41.6519 29.7859 41.6519C28.916 41.6519 28.2172 41.8163 27.6884 42.1453C27.1596 42.4745 26.8951 42.9094 26.8951 43.4495C26.8951 43.9432 27.089 44.3254 27.4767 44.5953C27.8644 44.8658 28.5047 45.0596 29.3979 45.1771L32.9235 45.7057C34.7093 45.9646 36.0901 46.5519 37.0657 47.4685C38.0407 48.385 38.5286 49.5484 38.5286 50.9586C38.5286 51.8285 38.3227 52.6329 37.9117 53.3735ZM15.4031 56.6695H20.5149V34.0561H15.4031V56.6695ZM34.543 19.8608C20.3613 19.8608 8.86473 31.3574 8.86473 45.5391C8.86473 59.7211 20.3613 71.2176 34.543 71.2176C48.7249 71.2176 60.2215 59.7211 60.2215 45.5391C60.2215 31.3574 48.7249 19.8608 34.543 19.8608Z" fill="#D8796F"/>
<path fill-rule="evenodd" clip-rule="evenodd" d="M95.9268 51.2408C95.9268 51.9459 96.2318 52.5041 96.843 52.9151C97.4542 53.3264 98.2647 53.5321 99.2755 53.5321C100.074 53.5321 100.809 53.4324 101.479 53.2322C102.149 53.0332 102.766 52.7449 103.33 52.3687V49.6191C102.742 49.3844 102.125 49.2136 101.479 49.1079C100.833 49.0022 100.157 48.9491 99.4521 48.9491C98.3471 48.9491 97.4833 49.1551 96.8609 49.5661C96.2381 49.9774 95.9268 50.5357 95.9268 51.2408ZM98.0067 56.9868C96.0325 56.9868 94.4224 56.464 93.1772 55.4182C91.9308 54.3726 91.3087 53.0154 91.3087 51.3465C91.3087 49.6073 91.9784 48.244 93.3177 47.2569C94.6574 46.2701 96.5023 45.7764 98.8526 45.7764C99.6047 45.7764 100.356 45.8352 101.109 45.9527C101.861 46.0705 102.601 46.2468 103.33 46.4815V45.177C103.33 44.1197 103.001 43.3209 102.343 42.7797C101.684 42.2396 100.721 41.9692 99.4521 41.9692C98.6764 41.9692 97.8359 42.0924 96.9314 42.3393C96.0267 42.5861 94.9978 42.9681 93.8469 43.4848L92.0844 39.9244C93.5173 39.2665 94.9097 38.7731 96.2618 38.4436C97.6126 38.115 98.9465 37.9502 100.263 37.9502C102.73 37.9502 104.652 38.5442 106.027 39.7306C107.402 40.9176 108.089 42.5919 108.089 44.7539V56.6697L103.33 55.4006C102.555 55.9415 101.738 56.341 100.88 56.5991C100.022 56.8575 99.0641 56.9868 98.0067 56.9868Z" fill="#2C839A"/>
<path fill-rule="evenodd" clip-rule="evenodd" d="M110.697 56.6697V38.3025L115.527 40.3121C116.114 39.5134 116.825 38.9079 117.66 38.4966C118.494 38.0856 119.416 37.8796 120.427 37.8796C120.897 37.9033 121.291 37.9445 121.608 38.0032C121.926 38.062 122.202 38.1616 122.437 38.3025V42.5332C122.084 42.369 121.696 42.2454 121.274 42.1627C120.85 42.081 120.415 42.0398 119.969 42.0398C119.029 42.0398 118.165 42.2748 117.378 42.7446C116.59 43.215 115.973 43.8964 115.527 44.7893V56.6697H110.697Z" fill="#2C839A"/>
<mask id="mask0_0_216" style="mask-type:alpha" maskUnits="userSpaceOnUse" x="123" y="34" width="20" height="23">
<path fill-rule="evenodd" clip-rule="evenodd" d="M123.988 34.0562H142.742V56.6695H123.988V34.0562Z" fill="white"/>
</mask>
<g mask="url(#mask0_0_216)">
<path fill-rule="evenodd" clip-rule="evenodd" d="M123.988 56.6695V34.0562H128.818V46.0583L136.75 38.3023H142.214L133.612 46.7279L142.743 56.6695H136.573L128.818 48.279V56.6695H123.988Z" fill="#2C839A"/>
</g>
<path fill-rule="evenodd" clip-rule="evenodd" d="M93.1996 61.3208V73.9344H91.5528V68.2157H85.1283V73.9344H83.4815V61.3208H85.1283V66.8584H91.5528V61.3208H93.1996Z" fill="#D8796F"/>
<path fill-rule="evenodd" clip-rule="evenodd" d="M97.6511 62.66V66.8764H102.248V68.2339H97.6511V72.577H102.791V73.9342H96.0043V61.3027H102.791V62.66H97.6511Z" fill="#D8796F"/>
<path fill-rule="evenodd" clip-rule="evenodd" d="M112.273 69.7902L109.993 63.4199L107.713 69.7902H112.273ZM112.744 71.1292H107.242L106.229 73.9342H104.492L109.052 61.3933H110.952L115.494 73.9342H113.757L112.744 71.1292Z" fill="#D8796F"/>
<path fill-rule="evenodd" clip-rule="evenodd" d="M119.132 72.5951H123.548V73.9344H117.485V61.3208H119.132V72.5951Z" fill="#D8796F"/>
<path fill-rule="evenodd" clip-rule="evenodd" d="M131.515 61.3208V62.6602H128.077V73.9344H126.43V62.6602H122.973V61.3208H131.515Z" fill="#D8796F"/>
<mask id="mask1_0_216" style="mask-type:alpha" maskUnits="userSpaceOnUse" x="133" y="61" width="10" height="13">
<path fill-rule="evenodd" clip-rule="evenodd" d="M133.024 61.3208H142.742V73.9344H133.024V61.3208Z" fill="white"/>
</mask>
<g mask="url(#mask1_0_216)">
<path fill-rule="evenodd" clip-rule="evenodd" d="M142.743 61.3208V73.9344H141.096V68.2157H134.671V73.9344H133.024V61.3208H134.671V66.8584H141.096V61.3208H142.743Z" fill="#D8796F"/>
</g>
<path fill-rule="evenodd" clip-rule="evenodd" d="M67.6541 15.5417C68.2577 17.6459 67.5053 19.9896 65.6102 21.3129L65.3827 21.4719C63.4876 22.7952 61.0278 22.6938 59.2605 21.4023L65.7916 30.7559C65.1877 28.6518 65.94 26.3081 67.8355 24.9848L68.0629 24.8258C69.9581 23.5025 72.4175 23.6039 74.1848 24.8954L67.6541 15.5417Z" fill="#D8796F"/>
<mask id="mask2_0_216" style="mask-type:alpha" maskUnits="userSpaceOnUse" x="67" y="0" width="28" height="27">
<path fill-rule="evenodd" clip-rule="evenodd" d="M67.4758 0H94.1242V26.6483H67.4758V0Z" fill="white"/>
</mask>
<g mask="url(#mask2_0_216)">
<path fill-rule="evenodd" clip-rule="evenodd" d="M80.8 0C73.453 0 67.4758 5.97712 67.4758 13.3242C67.4758 20.6713 73.453 26.6484 80.8 26.6484C88.1471 26.6484 94.1242 20.6713 94.1242 13.3242C94.1242 5.97712 88.1471 0 80.8 0ZM80.8 3.63461C86.1514 3.63461 90.4896 7.97283 90.4896 13.3242C90.4896 18.6756 86.1514 23.0138 80.8 23.0138C75.4487 23.0138 71.1104 18.6756 71.1104 13.3242C71.1104 7.97283 75.4487 3.63461 80.8 3.63461Z" fill="#2D839A"/>
</g>
<path fill-rule="evenodd" clip-rule="evenodd" d="M34.5431 76.4476C17.4728 76.4476 3.63461 62.6094 3.63461 45.5392C3.63461 28.4689 17.4728 14.6307 34.5431 14.6307C48.0072 14.6307 59.4587 23.2408 63.6969 35.2544H67.5351C65.8959 29.9736 62.99 25.1347 58.9689 21.1133C52.4445 14.5892 43.7698 10.9961 34.5431 10.9961C25.3163 10.9961 16.6417 14.5892 10.1173 21.1133C3.59312 27.6378 0 36.3124 0 45.5392C0 54.7659 3.59312 63.4406 10.1173 69.9647C16.6417 76.4891 25.3163 80.0822 34.5431 80.0822C43.7698 80.0822 52.4445 76.4891 58.9689 69.9647C62.091 66.8423 64.5402 63.2267 66.2472 59.2944H62.227C57.1658 69.4613 46.6712 76.4476 34.5431 76.4476Z" fill="#D8796F"/>
<path fill-rule="evenodd" clip-rule="evenodd" d="M61.3083 56.6697V38.3025L66.1381 39.6775C66.7956 39.1136 67.5247 38.685 68.3237 38.3909C69.1224 38.0971 69.9923 37.9502 70.9327 37.9502C72.1076 37.9502 73.171 38.1913 74.123 38.6729C75.075 39.1548 75.8558 39.8305 76.4673 40.6998C77.1955 39.8072 78.0769 39.1257 79.1112 38.6553C80.1453 38.1852 81.2847 37.9502 82.5308 37.9502C84.5755 37.9502 86.2556 38.632 87.572 39.995C88.888 41.3583 89.5459 43.1092 89.5459 45.2476V56.6697H84.7164V45.9527C84.7164 44.8014 84.4047 43.8725 83.7823 43.1677C83.1593 42.4626 82.3194 42.11 81.2617 42.11C80.5329 42.11 79.869 42.2687 79.2699 42.5861C78.6705 42.9033 78.1595 43.3561 77.7364 43.9431C77.7594 44.1548 77.7834 44.3662 77.807 44.5779C77.83 44.7893 77.8421 45.0129 77.8421 45.2476V56.6697H73.0123V45.9527C73.0123 44.8014 72.7007 43.8725 72.0782 43.1677C71.4552 42.4626 70.615 42.11 69.5576 42.11C68.8289 42.11 68.1828 42.2512 67.6189 42.5331C67.0546 42.8151 66.5612 43.2267 66.1381 43.7668V56.6697H61.3083Z" fill="#2C839A"/>
<path fill-rule="evenodd" clip-rule="evenodd" d="M62.8028 79.9582L68.8266 73.9345H68.6984V73.239C67.0208 73.5867 65.208 73.1149 63.9059 71.8128L63.7096 71.6165C62.0753 69.9821 61.7445 67.5427 62.7071 65.5767L54.6404 73.6434C56.6064 72.6808 59.0458 73.0116 60.6802 74.6459L60.8764 74.8422C62.1749 76.1407 62.6474 77.9468 62.3054 79.6202H62.8028V79.9582Z" fill="#D8796F"/>
<path fill-rule="evenodd" clip-rule="evenodd" d="M70.5652 73.0413C68.3499 73.0413 66.2539 73.8918 64.6626 75.4356C63.0682 76.9827 62.155 79.0581 62.092 81.2794C61.9587 85.9529 65.6527 89.8635 70.3265 89.9967C70.408 89.9989 70.4892 90.0001 70.5703 90.0001C72.7853 90.0001 74.8816 89.1499 76.473 87.6058C78.0676 86.0586 78.9805 83.9833 79.0438 81.7619C79.1084 79.4979 78.2872 77.3443 76.7319 75.6979C75.1766 74.0514 73.0731 73.1091 70.809 73.0446C70.7275 73.0425 70.6464 73.0413 70.5652 73.0413ZM70.5652 76.6759C70.6118 76.6759 70.6588 76.6765 70.7057 76.678C73.3802 76.754 75.4868 78.9839 75.4107 81.6586C75.3359 84.2862 73.1821 86.3655 70.5703 86.3655C70.5237 86.3655 70.4771 86.3648 70.4298 86.3636C67.7553 86.2873 65.6488 84.0575 65.7251 81.3827C65.7999 78.7552 67.9534 76.6759 70.5652 76.6759Z" fill="#2D839A"/>
</svg>
